<mxfile host="app.diagrams.net" modified="2023-08-26T07:51:53.557Z" agent="Mozilla/5.0 (Macintosh; Intel Mac OS X 10_15_7) AppleWebKit/537.36 (KHTML, like Gecko) Chrome/116.0.0.0 Safari/537.36" etag="-V4P7Otgib7VqypLKA11" version="21.6.1" type="github">
  <diagram name="第 1 页" id="jehKYRXt2UXKks1-xCpj">
    <mxGraphModel dx="1434" dy="714" grid="0" gridSize="10" guides="1" tooltips="1" connect="1" arrows="1" fold="1" page="1" pageScale="1" pageWidth="3300" pageHeight="4681" math="0" shadow="0">
      <root>
        <mxCell id="0" />
        <mxCell id="1" parent="0" />
        <mxCell id="rrR79lxbmHPPOHkK0sFg-21" value="" style="rounded=0;whiteSpace=wrap;html=1;" parent="1" vertex="1">
          <mxGeometry x="601" y="1349" width="53" height="320" as="geometry" />
        </mxCell>
        <mxCell id="rrR79lxbmHPPOHkK0sFg-20" value="" style="rounded=0;whiteSpace=wrap;html=1;" parent="1" vertex="1">
          <mxGeometry x="503.5" y="1349" width="53" height="320" as="geometry" />
        </mxCell>
        <mxCell id="rrR79lxbmHPPOHkK0sFg-19" value="" style="rounded=0;whiteSpace=wrap;html=1;" parent="1" vertex="1">
          <mxGeometry x="405.5" y="1349" width="53" height="320" as="geometry" />
        </mxCell>
        <mxCell id="rrR79lxbmHPPOHkK0sFg-18" value="" style="rounded=0;whiteSpace=wrap;html=1;" parent="1" vertex="1">
          <mxGeometry x="314" y="1349" width="53" height="320" as="geometry" />
        </mxCell>
        <mxCell id="qIpb1SyNwmcKf26K24ng-2" value="&lt;font style=&quot;font-size: 16px;&quot;&gt;Sync&lt;/font&gt;" style="text;html=1;strokeColor=none;fillColor=none;align=center;verticalAlign=middle;whiteSpace=wrap;rounded=0;" parent="1" vertex="1">
          <mxGeometry x="347" y="338" width="60" height="30" as="geometry" />
        </mxCell>
        <mxCell id="qIpb1SyNwmcKf26K24ng-3" value="&lt;font style=&quot;font-size: 16px;&quot;&gt;EC&lt;/font&gt;" style="rounded=0;whiteSpace=wrap;html=1;" parent="1" vertex="1">
          <mxGeometry x="489" y="340" width="65" height="33" as="geometry" />
        </mxCell>
        <mxCell id="qIpb1SyNwmcKf26K24ng-4" value="&lt;span style=&quot;font-size: 16px;&quot;&gt;Data + Parity (4MiB + 2MiB)&lt;/span&gt;" style="rounded=0;whiteSpace=wrap;html=1;" parent="1" vertex="1">
          <mxGeometry x="560" y="340" width="235" height="33" as="geometry" />
        </mxCell>
        <mxCell id="qIpb1SyNwmcKf26K24ng-5" value="&lt;font style=&quot;font-size: 16px;&quot;&gt;Async&lt;/font&gt;" style="text;html=1;strokeColor=none;fillColor=none;align=center;verticalAlign=middle;whiteSpace=wrap;rounded=0;" parent="1" vertex="1">
          <mxGeometry x="349" y="437" width="60" height="30" as="geometry" />
        </mxCell>
        <mxCell id="qIpb1SyNwmcKf26K24ng-6" value="&lt;span style=&quot;font-size: 16px;&quot;&gt;Data (4MiB)&lt;/span&gt;" style="rounded=0;whiteSpace=wrap;html=1;" parent="1" vertex="1">
          <mxGeometry x="489" y="417" width="228" height="33" as="geometry" />
        </mxCell>
        <mxCell id="qIpb1SyNwmcKf26K24ng-7" value="&lt;font style=&quot;font-size: 16px;&quot;&gt;EC&lt;/font&gt;" style="rounded=0;whiteSpace=wrap;html=1;" parent="1" vertex="1">
          <mxGeometry x="489" y="461" width="65" height="33" as="geometry" />
        </mxCell>
        <mxCell id="qIpb1SyNwmcKf26K24ng-8" value="&lt;span style=&quot;font-size: 16px;&quot;&gt;Parity (2MiB)&lt;/span&gt;" style="rounded=0;whiteSpace=wrap;html=1;" parent="1" vertex="1">
          <mxGeometry x="560" y="461" width="184" height="33" as="geometry" />
        </mxCell>
        <mxCell id="qIpb1SyNwmcKf26K24ng-9" value="&lt;font style=&quot;font-size: 16px;&quot;&gt;Async Batch&lt;/font&gt;" style="text;html=1;strokeColor=none;fillColor=none;align=center;verticalAlign=middle;whiteSpace=wrap;rounded=0;" parent="1" vertex="1">
          <mxGeometry x="314" y="658" width="126" height="30" as="geometry" />
        </mxCell>
        <mxCell id="qIpb1SyNwmcKf26K24ng-10" value="&lt;span style=&quot;font-size: 16px;&quot;&gt;Data (4MiB)&lt;/span&gt;" style="rounded=0;whiteSpace=wrap;html=1;" parent="1" vertex="1">
          <mxGeometry x="486" y="564" width="228" height="33" as="geometry" />
        </mxCell>
        <mxCell id="qIpb1SyNwmcKf26K24ng-11" value="&lt;font style=&quot;font-size: 16px;&quot;&gt;EC&lt;/font&gt;" style="rounded=0;whiteSpace=wrap;html=1;" parent="1" vertex="1">
          <mxGeometry x="486" y="608" width="65" height="33" as="geometry" />
        </mxCell>
        <mxCell id="qIpb1SyNwmcKf26K24ng-12" value="&lt;span style=&quot;font-size: 16px;&quot;&gt;Parity (2MiB)&lt;/span&gt;" style="rounded=0;whiteSpace=wrap;html=1;" parent="1" vertex="1">
          <mxGeometry x="557" y="608" width="184" height="33" as="geometry" />
        </mxCell>
        <mxCell id="qIpb1SyNwmcKf26K24ng-13" value="&lt;span style=&quot;font-size: 16px;&quot;&gt;Data (4MiB)&lt;/span&gt;" style="rounded=0;whiteSpace=wrap;html=1;" parent="1" vertex="1">
          <mxGeometry x="557" y="658" width="228" height="33" as="geometry" />
        </mxCell>
        <mxCell id="qIpb1SyNwmcKf26K24ng-14" value="&lt;font style=&quot;font-size: 16px;&quot;&gt;EC&lt;/font&gt;" style="rounded=0;whiteSpace=wrap;html=1;" parent="1" vertex="1">
          <mxGeometry x="557" y="702" width="65" height="33" as="geometry" />
        </mxCell>
        <mxCell id="qIpb1SyNwmcKf26K24ng-15" value="&lt;span style=&quot;font-size: 16px;&quot;&gt;Parity (2MiB)&lt;/span&gt;" style="rounded=0;whiteSpace=wrap;html=1;" parent="1" vertex="1">
          <mxGeometry x="628" y="702" width="184" height="33" as="geometry" />
        </mxCell>
        <mxCell id="qIpb1SyNwmcKf26K24ng-16" value="&lt;span style=&quot;font-size: 16px;&quot;&gt;Data (4MiB)&lt;/span&gt;" style="rounded=0;whiteSpace=wrap;html=1;" parent="1" vertex="1">
          <mxGeometry x="628" y="750" width="228" height="33" as="geometry" />
        </mxCell>
        <mxCell id="qIpb1SyNwmcKf26K24ng-17" value="&lt;font style=&quot;font-size: 16px;&quot;&gt;EC&lt;/font&gt;" style="rounded=0;whiteSpace=wrap;html=1;" parent="1" vertex="1">
          <mxGeometry x="628" y="794" width="65" height="33" as="geometry" />
        </mxCell>
        <mxCell id="qIpb1SyNwmcKf26K24ng-18" value="&lt;span style=&quot;font-size: 16px;&quot;&gt;Parity (2MiB)&lt;/span&gt;" style="rounded=0;whiteSpace=wrap;html=1;" parent="1" vertex="1">
          <mxGeometry x="699" y="794" width="184" height="33" as="geometry" />
        </mxCell>
        <mxCell id="rrR79lxbmHPPOHkK0sFg-1" value="" style="rounded=0;whiteSpace=wrap;html=1;fillColor=#dae8fc;strokeColor=#000000;" parent="1" vertex="1">
          <mxGeometry x="328" y="1361" width="24" height="59" as="geometry" />
        </mxCell>
        <mxCell id="rrR79lxbmHPPOHkK0sFg-2" value="" style="rounded=0;whiteSpace=wrap;html=1;fillColor=#dae8fc;strokeColor=#000000;" parent="1" vertex="1">
          <mxGeometry x="328" y="1441" width="24" height="59" as="geometry" />
        </mxCell>
        <mxCell id="rrR79lxbmHPPOHkK0sFg-3" value="" style="rounded=0;whiteSpace=wrap;html=1;fillColor=#dae8fc;strokeColor=#000000;" parent="1" vertex="1">
          <mxGeometry x="420" y="1361" width="24" height="59" as="geometry" />
        </mxCell>
        <mxCell id="rrR79lxbmHPPOHkK0sFg-4" value="" style="rounded=0;whiteSpace=wrap;html=1;fillColor=#dae8fc;strokeColor=#000000;" parent="1" vertex="1">
          <mxGeometry x="420" y="1441" width="24" height="59" as="geometry" />
        </mxCell>
        <mxCell id="rrR79lxbmHPPOHkK0sFg-5" value="" style="rounded=0;whiteSpace=wrap;html=1;fillColor=#cdeb8b;strokeColor=#36393d;" parent="1" vertex="1">
          <mxGeometry x="328" y="1521" width="24" height="59" as="geometry" />
        </mxCell>
        <mxCell id="rrR79lxbmHPPOHkK0sFg-7" value="" style="rounded=0;whiteSpace=wrap;html=1;fillColor=#cdeb8b;strokeColor=#36393d;" parent="1" vertex="1">
          <mxGeometry x="328" y="1601" width="24" height="59" as="geometry" />
        </mxCell>
        <mxCell id="rrR79lxbmHPPOHkK0sFg-8" value="" style="rounded=0;whiteSpace=wrap;html=1;fillColor=#cdeb8b;strokeColor=#36393d;" parent="1" vertex="1">
          <mxGeometry x="420" y="1521" width="24" height="59" as="geometry" />
        </mxCell>
        <mxCell id="rrR79lxbmHPPOHkK0sFg-9" value="" style="rounded=0;whiteSpace=wrap;html=1;fillColor=#cdeb8b;strokeColor=#36393d;" parent="1" vertex="1">
          <mxGeometry x="420" y="1601" width="24" height="59" as="geometry" />
        </mxCell>
        <mxCell id="rrR79lxbmHPPOHkK0sFg-10" value="" style="rounded=0;whiteSpace=wrap;html=1;fillColor=#ffcccc;strokeColor=#36393d;" parent="1" vertex="1">
          <mxGeometry x="518" y="1361" width="24" height="59" as="geometry" />
        </mxCell>
        <mxCell id="rrR79lxbmHPPOHkK0sFg-11" value="" style="rounded=0;whiteSpace=wrap;html=1;fillColor=#ffcccc;strokeColor=#36393d;" parent="1" vertex="1">
          <mxGeometry x="518" y="1441" width="24" height="59" as="geometry" />
        </mxCell>
        <mxCell id="rrR79lxbmHPPOHkK0sFg-12" value="" style="rounded=0;whiteSpace=wrap;html=1;fillColor=#ffcccc;strokeColor=#36393d;" parent="1" vertex="1">
          <mxGeometry x="618" y="1361" width="24" height="59" as="geometry" />
        </mxCell>
        <mxCell id="rrR79lxbmHPPOHkK0sFg-13" value="" style="rounded=0;whiteSpace=wrap;html=1;fillColor=#ffcccc;strokeColor=#36393d;" parent="1" vertex="1">
          <mxGeometry x="618" y="1441" width="24" height="59" as="geometry" />
        </mxCell>
        <mxCell id="rrR79lxbmHPPOHkK0sFg-14" value="" style="rounded=0;whiteSpace=wrap;html=1;fillColor=#e1d5e7;strokeColor=#000000;" parent="1" vertex="1">
          <mxGeometry x="518" y="1521" width="24" height="59" as="geometry" />
        </mxCell>
        <mxCell id="rrR79lxbmHPPOHkK0sFg-15" value="" style="rounded=0;whiteSpace=wrap;html=1;fillColor=#e1d5e7;strokeColor=#000000;" parent="1" vertex="1">
          <mxGeometry x="518" y="1601" width="24" height="59" as="geometry" />
        </mxCell>
        <mxCell id="rrR79lxbmHPPOHkK0sFg-16" value="" style="rounded=0;whiteSpace=wrap;html=1;fillColor=#e1d5e7;strokeColor=#000000;" parent="1" vertex="1">
          <mxGeometry x="616" y="1521" width="24" height="59" as="geometry" />
        </mxCell>
        <mxCell id="rrR79lxbmHPPOHkK0sFg-17" value="" style="rounded=0;whiteSpace=wrap;html=1;fillColor=#e1d5e7;strokeColor=#000000;" parent="1" vertex="1">
          <mxGeometry x="616" y="1601" width="24" height="59" as="geometry" />
        </mxCell>
        <mxCell id="rrR79lxbmHPPOHkK0sFg-22" value="&lt;font style=&quot;font-size: 17px;&quot;&gt;M1&lt;/font&gt;" style="text;html=1;strokeColor=none;fillColor=none;align=center;verticalAlign=middle;whiteSpace=wrap;rounded=0;" parent="1" vertex="1">
          <mxGeometry x="325" y="1669" width="39" height="30" as="geometry" />
        </mxCell>
        <mxCell id="rrR79lxbmHPPOHkK0sFg-23" value="&lt;font style=&quot;font-size: 17px;&quot;&gt;M2&lt;/font&gt;" style="text;html=1;strokeColor=none;fillColor=none;align=center;verticalAlign=middle;whiteSpace=wrap;rounded=0;" parent="1" vertex="1">
          <mxGeometry x="412.5" y="1669" width="39" height="30" as="geometry" />
        </mxCell>
        <mxCell id="rrR79lxbmHPPOHkK0sFg-24" value="&lt;font style=&quot;font-size: 17px;&quot;&gt;M3&lt;/font&gt;" style="text;html=1;strokeColor=none;fillColor=none;align=center;verticalAlign=middle;whiteSpace=wrap;rounded=0;" parent="1" vertex="1">
          <mxGeometry x="512" y="1669" width="39" height="30" as="geometry" />
        </mxCell>
        <mxCell id="rrR79lxbmHPPOHkK0sFg-25" value="&lt;font style=&quot;font-size: 17px;&quot;&gt;M4&lt;/font&gt;" style="text;html=1;strokeColor=none;fillColor=none;align=center;verticalAlign=middle;whiteSpace=wrap;rounded=0;" parent="1" vertex="1">
          <mxGeometry x="608.5" y="1669" width="39" height="30" as="geometry" />
        </mxCell>
        <mxCell id="rrR79lxbmHPPOHkK0sFg-26" value="" style="rounded=0;whiteSpace=wrap;html=1;" parent="1" vertex="1">
          <mxGeometry x="1089" y="1349" width="53" height="320" as="geometry" />
        </mxCell>
        <mxCell id="rrR79lxbmHPPOHkK0sFg-27" value="" style="rounded=0;whiteSpace=wrap;html=1;" parent="1" vertex="1">
          <mxGeometry x="991.5" y="1349" width="53" height="320" as="geometry" />
        </mxCell>
        <mxCell id="rrR79lxbmHPPOHkK0sFg-28" value="" style="rounded=0;whiteSpace=wrap;html=1;" parent="1" vertex="1">
          <mxGeometry x="893.5" y="1349" width="53" height="320" as="geometry" />
        </mxCell>
        <mxCell id="rrR79lxbmHPPOHkK0sFg-29" value="" style="rounded=0;whiteSpace=wrap;html=1;" parent="1" vertex="1">
          <mxGeometry x="802" y="1349" width="53" height="320" as="geometry" />
        </mxCell>
        <mxCell id="rrR79lxbmHPPOHkK0sFg-30" value="" style="rounded=0;whiteSpace=wrap;html=1;fillColor=#dae8fc;strokeColor=#000000;" parent="1" vertex="1">
          <mxGeometry x="816" y="1361" width="24" height="59" as="geometry" />
        </mxCell>
        <mxCell id="rrR79lxbmHPPOHkK0sFg-31" value="" style="rounded=0;whiteSpace=wrap;html=1;fillColor=#dae8fc;strokeColor=#000000;" parent="1" vertex="1">
          <mxGeometry x="908" y="1361" width="24" height="59" as="geometry" />
        </mxCell>
        <mxCell id="rrR79lxbmHPPOHkK0sFg-32" value="" style="rounded=0;whiteSpace=wrap;html=1;fillColor=#dae8fc;strokeColor=#000000;" parent="1" vertex="1">
          <mxGeometry x="1006" y="1361" width="24" height="59" as="geometry" />
        </mxCell>
        <mxCell id="rrR79lxbmHPPOHkK0sFg-33" value="" style="rounded=0;whiteSpace=wrap;html=1;fillColor=#dae8fc;strokeColor=#000000;" parent="1" vertex="1">
          <mxGeometry x="1103.5" y="1361" width="24" height="59" as="geometry" />
        </mxCell>
        <mxCell id="rrR79lxbmHPPOHkK0sFg-34" value="" style="rounded=0;whiteSpace=wrap;html=1;fillColor=#cdeb8b;strokeColor=#36393d;" parent="1" vertex="1">
          <mxGeometry x="816" y="1441" width="24" height="59" as="geometry" />
        </mxCell>
        <mxCell id="rrR79lxbmHPPOHkK0sFg-35" value="" style="rounded=0;whiteSpace=wrap;html=1;fillColor=#cdeb8b;strokeColor=#36393d;" parent="1" vertex="1">
          <mxGeometry x="908" y="1441" width="24" height="59" as="geometry" />
        </mxCell>
        <mxCell id="rrR79lxbmHPPOHkK0sFg-36" value="" style="rounded=0;whiteSpace=wrap;html=1;fillColor=#cdeb8b;strokeColor=#36393d;" parent="1" vertex="1">
          <mxGeometry x="1007.5" y="1441" width="24" height="59" as="geometry" />
        </mxCell>
        <mxCell id="rrR79lxbmHPPOHkK0sFg-37" value="" style="rounded=0;whiteSpace=wrap;html=1;fillColor=#cdeb8b;strokeColor=#36393d;" parent="1" vertex="1">
          <mxGeometry x="1104" y="1441" width="24" height="59" as="geometry" />
        </mxCell>
        <mxCell id="rrR79lxbmHPPOHkK0sFg-38" value="" style="rounded=0;whiteSpace=wrap;html=1;fillColor=#ffcccc;strokeColor=#36393d;" parent="1" vertex="1">
          <mxGeometry x="816" y="1521" width="24" height="59" as="geometry" />
        </mxCell>
        <mxCell id="rrR79lxbmHPPOHkK0sFg-39" value="" style="rounded=0;whiteSpace=wrap;html=1;fillColor=#ffcccc;strokeColor=#36393d;" parent="1" vertex="1">
          <mxGeometry x="908" y="1521" width="24" height="59" as="geometry" />
        </mxCell>
        <mxCell id="rrR79lxbmHPPOHkK0sFg-40" value="" style="rounded=0;whiteSpace=wrap;html=1;fillColor=#ffcccc;strokeColor=#36393d;" parent="1" vertex="1">
          <mxGeometry x="1006" y="1521" width="24" height="59" as="geometry" />
        </mxCell>
        <mxCell id="rrR79lxbmHPPOHkK0sFg-41" value="" style="rounded=0;whiteSpace=wrap;html=1;fillColor=#ffcccc;strokeColor=#36393d;" parent="1" vertex="1">
          <mxGeometry x="1104" y="1521" width="24" height="59" as="geometry" />
        </mxCell>
        <mxCell id="rrR79lxbmHPPOHkK0sFg-42" value="" style="rounded=0;whiteSpace=wrap;html=1;fillColor=#e1d5e7;strokeColor=#000000;" parent="1" vertex="1">
          <mxGeometry x="816" y="1601" width="24" height="59" as="geometry" />
        </mxCell>
        <mxCell id="rrR79lxbmHPPOHkK0sFg-43" value="" style="rounded=0;whiteSpace=wrap;html=1;fillColor=#e1d5e7;strokeColor=#000000;" parent="1" vertex="1">
          <mxGeometry x="908" y="1601" width="24" height="59" as="geometry" />
        </mxCell>
        <mxCell id="rrR79lxbmHPPOHkK0sFg-44" value="" style="rounded=0;whiteSpace=wrap;html=1;fillColor=#e1d5e7;strokeColor=#000000;" parent="1" vertex="1">
          <mxGeometry x="1006" y="1601" width="24" height="59" as="geometry" />
        </mxCell>
        <mxCell id="rrR79lxbmHPPOHkK0sFg-45" value="" style="rounded=0;whiteSpace=wrap;html=1;fillColor=#e1d5e7;strokeColor=#000000;" parent="1" vertex="1">
          <mxGeometry x="1104" y="1601" width="24" height="59" as="geometry" />
        </mxCell>
        <mxCell id="rrR79lxbmHPPOHkK0sFg-46" value="&lt;font style=&quot;font-size: 17px;&quot;&gt;M1&lt;/font&gt;" style="text;html=1;strokeColor=none;fillColor=none;align=center;verticalAlign=middle;whiteSpace=wrap;rounded=0;" parent="1" vertex="1">
          <mxGeometry x="813" y="1669" width="39" height="30" as="geometry" />
        </mxCell>
        <mxCell id="rrR79lxbmHPPOHkK0sFg-47" value="&lt;font style=&quot;font-size: 17px;&quot;&gt;M2&lt;/font&gt;" style="text;html=1;strokeColor=none;fillColor=none;align=center;verticalAlign=middle;whiteSpace=wrap;rounded=0;" parent="1" vertex="1">
          <mxGeometry x="900.5" y="1669" width="39" height="30" as="geometry" />
        </mxCell>
        <mxCell id="rrR79lxbmHPPOHkK0sFg-48" value="&lt;font style=&quot;font-size: 17px;&quot;&gt;M3&lt;/font&gt;" style="text;html=1;strokeColor=none;fillColor=none;align=center;verticalAlign=middle;whiteSpace=wrap;rounded=0;" parent="1" vertex="1">
          <mxGeometry x="1000" y="1669" width="39" height="30" as="geometry" />
        </mxCell>
        <mxCell id="rrR79lxbmHPPOHkK0sFg-49" value="&lt;font style=&quot;font-size: 17px;&quot;&gt;M4&lt;/font&gt;" style="text;html=1;strokeColor=none;fillColor=none;align=center;verticalAlign=middle;whiteSpace=wrap;rounded=0;" parent="1" vertex="1">
          <mxGeometry x="1096.5" y="1669" width="39" height="30" as="geometry" />
        </mxCell>
        <mxCell id="rrR79lxbmHPPOHkK0sFg-51" value="&lt;font style=&quot;font-size: 17px;&quot;&gt;Hybrid Encoding&lt;/font&gt;" style="text;html=1;strokeColor=none;fillColor=none;align=center;verticalAlign=middle;whiteSpace=wrap;rounded=0;" parent="1" vertex="1">
          <mxGeometry x="364" y="1711" width="254" height="30" as="geometry" />
        </mxCell>
        <mxCell id="rrR79lxbmHPPOHkK0sFg-52" value="&lt;font style=&quot;font-size: 17px;&quot;&gt;Hydra: Intra-Span Encoding&lt;/font&gt;" style="text;html=1;strokeColor=none;fillColor=none;align=center;verticalAlign=middle;whiteSpace=wrap;rounded=0;" parent="1" vertex="1">
          <mxGeometry x="842.5" y="1711" width="254" height="30" as="geometry" />
        </mxCell>
        <mxCell id="9sUq96RR5VAVab99w-DM-1" value="&lt;font style=&quot;font-size: 18px;&quot;&gt;k=4&lt;/font&gt;" style="text;html=1;strokeColor=none;fillColor=none;align=center;verticalAlign=middle;whiteSpace=wrap;rounded=0;" vertex="1" parent="1">
          <mxGeometry x="94" y="955" width="43" height="28" as="geometry" />
        </mxCell>
        <mxCell id="9sUq96RR5VAVab99w-DM-2" value="&lt;font style=&quot;font-size: 16px;&quot;&gt;6&lt;/font&gt;" style="rounded=0;whiteSpace=wrap;html=1;fillColor=#dae8fc;strokeColor=#000000;" vertex="1" parent="1">
          <mxGeometry x="179" y="939" width="35" height="60" as="geometry" />
        </mxCell>
        <mxCell id="9sUq96RR5VAVab99w-DM-3" value="&lt;font style=&quot;font-size: 16px;&quot;&gt;6&lt;/font&gt;" style="rounded=0;whiteSpace=wrap;html=1;fillColor=#dae8fc;strokeColor=#000000;" vertex="1" parent="1">
          <mxGeometry x="264" y="939" width="35" height="60" as="geometry" />
        </mxCell>
        <mxCell id="9sUq96RR5VAVab99w-DM-4" value="&lt;font style=&quot;font-size: 16px;&quot;&gt;6&lt;/font&gt;" style="rounded=0;whiteSpace=wrap;html=1;fillColor=#dae8fc;strokeColor=#000000;" vertex="1" parent="1">
          <mxGeometry x="349" y="939" width="35" height="60" as="geometry" />
        </mxCell>
        <mxCell id="9sUq96RR5VAVab99w-DM-5" value="&lt;font style=&quot;font-size: 16px;&quot;&gt;6&lt;/font&gt;" style="rounded=0;whiteSpace=wrap;html=1;fillColor=#dae8fc;strokeColor=#000000;" vertex="1" parent="1">
          <mxGeometry x="434" y="939" width="35" height="60" as="geometry" />
        </mxCell>
        <mxCell id="9sUq96RR5VAVab99w-DM-6" value="" style="endArrow=none;html=1;rounded=0;dashed=1;" edge="1" parent="1">
          <mxGeometry width="50" height="50" relative="1" as="geometry">
            <mxPoint x="528" y="1273" as="sourcePoint" />
            <mxPoint x="524" y="884" as="targetPoint" />
          </mxGeometry>
        </mxCell>
        <mxCell id="9sUq96RR5VAVab99w-DM-7" value="&lt;font style=&quot;font-size: 14px;&quot;&gt;&lt;b&gt;Original Data&lt;/b&gt;&lt;/font&gt;" style="text;html=1;strokeColor=none;fillColor=none;align=center;verticalAlign=middle;whiteSpace=wrap;rounded=0;" vertex="1" parent="1">
          <mxGeometry x="272" y="858" width="121" height="30" as="geometry" />
        </mxCell>
        <mxCell id="9sUq96RR5VAVab99w-DM-8" value="&lt;font style=&quot;font-size: 14px;&quot;&gt;&lt;b&gt;Parity&lt;/b&gt;&lt;/font&gt;" style="text;html=1;strokeColor=none;fillColor=none;align=center;verticalAlign=middle;whiteSpace=wrap;rounded=0;" vertex="1" parent="1">
          <mxGeometry x="618" y="858" width="90" height="30" as="geometry" />
        </mxCell>
        <mxCell id="9sUq96RR5VAVab99w-DM-9" value="&lt;font style=&quot;font-size: 16px;&quot;&gt;6&lt;/font&gt;" style="rounded=0;whiteSpace=wrap;html=1;fillColor=#f8cecc;strokeColor=#000000;" vertex="1" parent="1">
          <mxGeometry x="566" y="939" width="35" height="60" as="geometry" />
        </mxCell>
        <mxCell id="9sUq96RR5VAVab99w-DM-10" value="&lt;font style=&quot;font-size: 16px;&quot;&gt;6&lt;/font&gt;" style="rounded=0;whiteSpace=wrap;html=1;fillColor=#f8cecc;strokeColor=#000000;" vertex="1" parent="1">
          <mxGeometry x="643" y="939" width="35" height="60" as="geometry" />
        </mxCell>
        <mxCell id="9sUq96RR5VAVab99w-DM-11" value="&lt;font style=&quot;font-size: 16px;&quot;&gt;6&lt;/font&gt;" style="rounded=0;whiteSpace=wrap;html=1;fillColor=#f8cecc;strokeColor=#000000;" vertex="1" parent="1">
          <mxGeometry x="720" y="939" width="35" height="60" as="geometry" />
        </mxCell>
        <mxCell id="9sUq96RR5VAVab99w-DM-12" value="&lt;font style=&quot;font-size: 18px;&quot;&gt;k=3&lt;/font&gt;" style="text;html=1;strokeColor=none;fillColor=none;align=center;verticalAlign=middle;whiteSpace=wrap;rounded=0;" vertex="1" parent="1">
          <mxGeometry x="94" y="1054" width="43" height="28" as="geometry" />
        </mxCell>
        <mxCell id="9sUq96RR5VAVab99w-DM-15" value="&lt;font style=&quot;font-size: 16px;&quot;&gt;6&lt;/font&gt;" style="rounded=0;whiteSpace=wrap;html=1;fillColor=#dae8fc;strokeColor=#000000;" vertex="1" parent="1">
          <mxGeometry x="179" y="1033" width="35" height="60" as="geometry" />
        </mxCell>
        <mxCell id="9sUq96RR5VAVab99w-DM-16" value="&lt;font style=&quot;font-size: 16px;&quot;&gt;6&lt;/font&gt;" style="rounded=0;whiteSpace=wrap;html=1;fillColor=#dae8fc;strokeColor=#000000;" vertex="1" parent="1">
          <mxGeometry x="264" y="1033" width="35" height="60" as="geometry" />
        </mxCell>
        <mxCell id="9sUq96RR5VAVab99w-DM-17" value="&lt;font style=&quot;font-size: 16px;&quot;&gt;6&lt;/font&gt;" style="rounded=0;whiteSpace=wrap;html=1;fillColor=#dae8fc;strokeColor=#000000;" vertex="1" parent="1">
          <mxGeometry x="349" y="1033" width="35" height="60" as="geometry" />
        </mxCell>
        <mxCell id="9sUq96RR5VAVab99w-DM-18" value="&lt;font style=&quot;font-size: 16px;&quot;&gt;6&lt;/font&gt;" style="rounded=0;whiteSpace=wrap;html=1;fillColor=#d5e8d4;strokeColor=#82b366;dashed=1;dashPattern=8 8;" vertex="1" parent="1">
          <mxGeometry x="434" y="1033" width="35" height="60" as="geometry" />
        </mxCell>
        <mxCell id="9sUq96RR5VAVab99w-DM-20" value="&lt;font style=&quot;font-size: 16px;&quot;&gt;2&lt;/font&gt;" style="rounded=0;whiteSpace=wrap;html=1;fillColor=#d5e8d4;strokeColor=#82b366;dashed=1;dashPattern=8 8;" vertex="1" parent="1">
          <mxGeometry x="179" y="1108" width="35" height="19" as="geometry" />
        </mxCell>
        <mxCell id="9sUq96RR5VAVab99w-DM-21" value="&lt;font style=&quot;font-size: 16px;&quot;&gt;2&lt;/font&gt;" style="rounded=0;whiteSpace=wrap;html=1;fillColor=#d5e8d4;strokeColor=#82b366;dashed=1;dashPattern=8 8;" vertex="1" parent="1">
          <mxGeometry x="264" y="1108" width="35" height="19" as="geometry" />
        </mxCell>
        <mxCell id="9sUq96RR5VAVab99w-DM-22" value="&lt;font style=&quot;font-size: 16px;&quot;&gt;2&lt;/font&gt;" style="rounded=0;whiteSpace=wrap;html=1;fillColor=#d5e8d4;strokeColor=#82b366;dashed=1;dashPattern=8 8;" vertex="1" parent="1">
          <mxGeometry x="349" y="1108" width="35" height="19" as="geometry" />
        </mxCell>
        <mxCell id="9sUq96RR5VAVab99w-DM-23" value="&lt;font style=&quot;font-size: 16px;&quot;&gt;6&lt;/font&gt;" style="rounded=0;whiteSpace=wrap;html=1;fillColor=#f8cecc;strokeColor=#000000;" vertex="1" parent="1">
          <mxGeometry x="566" y="1031" width="35" height="60" as="geometry" />
        </mxCell>
        <mxCell id="9sUq96RR5VAVab99w-DM-24" value="&lt;font style=&quot;font-size: 16px;&quot;&gt;6&lt;/font&gt;" style="rounded=0;whiteSpace=wrap;html=1;fillColor=#f8cecc;strokeColor=#000000;" vertex="1" parent="1">
          <mxGeometry x="643" y="1031" width="35" height="60" as="geometry" />
        </mxCell>
        <mxCell id="9sUq96RR5VAVab99w-DM-25" value="&lt;font style=&quot;font-size: 16px;&quot;&gt;6&lt;/font&gt;" style="rounded=0;whiteSpace=wrap;html=1;fillColor=#f8cecc;strokeColor=#000000;" vertex="1" parent="1">
          <mxGeometry x="720" y="1031" width="35" height="60" as="geometry" />
        </mxCell>
        <mxCell id="9sUq96RR5VAVab99w-DM-26" value="&lt;font style=&quot;font-size: 16px;&quot;&gt;2&lt;/font&gt;" style="rounded=0;whiteSpace=wrap;html=1;fillColor=#f8cecc;strokeColor=#000000;dashed=1;dashPattern=8 8;" vertex="1" parent="1">
          <mxGeometry x="566" y="1108" width="35" height="19" as="geometry" />
        </mxCell>
        <mxCell id="9sUq96RR5VAVab99w-DM-27" value="&lt;font style=&quot;font-size: 16px;&quot;&gt;2&lt;/font&gt;" style="rounded=0;whiteSpace=wrap;html=1;fillColor=#f8cecc;strokeColor=#000000;dashed=1;dashPattern=8 8;" vertex="1" parent="1">
          <mxGeometry x="642" y="1108" width="35" height="19" as="geometry" />
        </mxCell>
        <mxCell id="9sUq96RR5VAVab99w-DM-28" value="&lt;font style=&quot;font-size: 16px;&quot;&gt;2&lt;/font&gt;" style="rounded=0;whiteSpace=wrap;html=1;fillColor=#f8cecc;strokeColor=#000000;dashed=1;dashPattern=8 8;" vertex="1" parent="1">
          <mxGeometry x="720" y="1108" width="35" height="19" as="geometry" />
        </mxCell>
        <mxCell id="9sUq96RR5VAVab99w-DM-32" value="&lt;font style=&quot;font-size: 18px;&quot;&gt;k=2&lt;/font&gt;" style="text;html=1;strokeColor=none;fillColor=none;align=center;verticalAlign=middle;whiteSpace=wrap;rounded=0;" vertex="1" parent="1">
          <mxGeometry x="92" y="1181" width="43" height="28" as="geometry" />
        </mxCell>
        <mxCell id="9sUq96RR5VAVab99w-DM-40" value="&lt;font style=&quot;font-size: 16px;&quot;&gt;6&lt;/font&gt;" style="rounded=0;whiteSpace=wrap;html=1;fillColor=#dae8fc;strokeColor=#000000;" vertex="1" parent="1">
          <mxGeometry x="179" y="1181" width="35" height="60" as="geometry" />
        </mxCell>
        <mxCell id="9sUq96RR5VAVab99w-DM-41" value="&lt;font style=&quot;font-size: 16px;&quot;&gt;6&lt;/font&gt;" style="rounded=0;whiteSpace=wrap;html=1;fillColor=#dae8fc;strokeColor=#000000;" vertex="1" parent="1">
          <mxGeometry x="264" y="1181" width="35" height="60" as="geometry" />
        </mxCell>
        <mxCell id="9sUq96RR5VAVab99w-DM-42" value="&lt;font style=&quot;font-size: 16px;&quot;&gt;6&lt;/font&gt;" style="rounded=0;whiteSpace=wrap;html=1;fillColor=#fff2cc;strokeColor=#d6b656;dashed=1;dashPattern=8 8;" vertex="1" parent="1">
          <mxGeometry x="349" y="1181" width="35" height="60" as="geometry" />
        </mxCell>
        <mxCell id="9sUq96RR5VAVab99w-DM-43" value="&lt;font style=&quot;font-size: 16px;&quot;&gt;6&lt;/font&gt;" style="rounded=0;whiteSpace=wrap;html=1;fillColor=#d5e8d4;strokeColor=#82b366;dashed=1;dashPattern=8 8;" vertex="1" parent="1">
          <mxGeometry x="434" y="1181" width="35" height="60" as="geometry" />
        </mxCell>
        <mxCell id="9sUq96RR5VAVab99w-DM-44" value="&lt;font style=&quot;font-size: 16px;&quot;&gt;3&lt;/font&gt;" style="rounded=0;whiteSpace=wrap;html=1;fillColor=#fff2cc;strokeColor=#d6b656;dashed=1;dashPattern=8 8;" vertex="1" parent="1">
          <mxGeometry x="179" y="1258" width="35" height="22" as="geometry" />
        </mxCell>
        <mxCell id="9sUq96RR5VAVab99w-DM-45" value="&lt;font style=&quot;font-size: 16px;&quot;&gt;3&lt;/font&gt;" style="rounded=0;whiteSpace=wrap;html=1;fillColor=#fff2cc;strokeColor=#d6b656;dashed=1;dashPattern=8 8;" vertex="1" parent="1">
          <mxGeometry x="264" y="1258" width="35" height="22" as="geometry" />
        </mxCell>
        <mxCell id="9sUq96RR5VAVab99w-DM-46" value="&lt;font style=&quot;font-size: 16px;&quot;&gt;3&lt;/font&gt;" style="rounded=0;whiteSpace=wrap;html=1;fillColor=#d5e8d4;strokeColor=#82b366;dashed=1;dashPattern=8 8;" vertex="1" parent="1">
          <mxGeometry x="179" y="1286" width="35" height="19" as="geometry" />
        </mxCell>
        <mxCell id="9sUq96RR5VAVab99w-DM-47" value="&lt;font style=&quot;font-size: 16px;&quot;&gt;3&lt;/font&gt;" style="rounded=0;whiteSpace=wrap;html=1;fillColor=#d5e8d4;strokeColor=#82b366;dashed=1;dashPattern=8 8;" vertex="1" parent="1">
          <mxGeometry x="264" y="1286" width="35" height="19" as="geometry" />
        </mxCell>
        <mxCell id="9sUq96RR5VAVab99w-DM-52" value="&lt;font style=&quot;font-size: 16px;&quot;&gt;6&lt;/font&gt;" style="rounded=0;whiteSpace=wrap;html=1;fillColor=#f8cecc;strokeColor=#000000;" vertex="1" parent="1">
          <mxGeometry x="566" y="1181" width="35" height="60" as="geometry" />
        </mxCell>
        <mxCell id="9sUq96RR5VAVab99w-DM-53" value="&lt;font style=&quot;font-size: 16px;&quot;&gt;6&lt;/font&gt;" style="rounded=0;whiteSpace=wrap;html=1;fillColor=#f8cecc;strokeColor=#000000;" vertex="1" parent="1">
          <mxGeometry x="643" y="1181" width="35" height="60" as="geometry" />
        </mxCell>
        <mxCell id="9sUq96RR5VAVab99w-DM-54" value="&lt;font style=&quot;font-size: 16px;&quot;&gt;6&lt;/font&gt;" style="rounded=0;whiteSpace=wrap;html=1;fillColor=#f8cecc;strokeColor=#000000;" vertex="1" parent="1">
          <mxGeometry x="720" y="1181" width="35" height="60" as="geometry" />
        </mxCell>
        <mxCell id="9sUq96RR5VAVab99w-DM-59" value="&lt;font style=&quot;font-size: 16px;&quot;&gt;3&lt;/font&gt;" style="rounded=0;whiteSpace=wrap;html=1;fillColor=#f8cecc;strokeColor=#000000;dashed=1;dashPattern=8 8;" vertex="1" parent="1">
          <mxGeometry x="566" y="1261" width="35" height="19" as="geometry" />
        </mxCell>
        <mxCell id="9sUq96RR5VAVab99w-DM-60" value="&lt;font style=&quot;font-size: 16px;&quot;&gt;3&lt;/font&gt;" style="rounded=0;whiteSpace=wrap;html=1;fillColor=#f8cecc;strokeColor=#000000;dashed=1;dashPattern=8 8;" vertex="1" parent="1">
          <mxGeometry x="642" y="1261" width="35" height="19" as="geometry" />
        </mxCell>
        <mxCell id="9sUq96RR5VAVab99w-DM-61" value="&lt;font style=&quot;font-size: 16px;&quot;&gt;3&lt;/font&gt;" style="rounded=0;whiteSpace=wrap;html=1;fillColor=#f8cecc;strokeColor=#000000;dashed=1;dashPattern=8 8;" vertex="1" parent="1">
          <mxGeometry x="720" y="1261" width="35" height="19" as="geometry" />
        </mxCell>
        <mxCell id="9sUq96RR5VAVab99w-DM-62" value="&lt;font style=&quot;font-size: 16px;&quot;&gt;3&lt;/font&gt;" style="rounded=0;whiteSpace=wrap;html=1;fillColor=#f8cecc;strokeColor=#000000;dashed=1;dashPattern=8 8;" vertex="1" parent="1">
          <mxGeometry x="566" y="1288" width="35" height="19" as="geometry" />
        </mxCell>
        <mxCell id="9sUq96RR5VAVab99w-DM-63" value="&lt;font style=&quot;font-size: 16px;&quot;&gt;3&lt;/font&gt;" style="rounded=0;whiteSpace=wrap;html=1;fillColor=#f8cecc;strokeColor=#000000;dashed=1;dashPattern=8 8;" vertex="1" parent="1">
          <mxGeometry x="642" y="1288" width="35" height="19" as="geometry" />
        </mxCell>
        <mxCell id="9sUq96RR5VAVab99w-DM-64" value="&lt;font style=&quot;font-size: 16px;&quot;&gt;3&lt;/font&gt;" style="rounded=0;whiteSpace=wrap;html=1;fillColor=#f8cecc;strokeColor=#000000;dashed=1;dashPattern=8 8;" vertex="1" parent="1">
          <mxGeometry x="720" y="1288" width="35" height="19" as="geometry" />
        </mxCell>
        <mxCell id="9sUq96RR5VAVab99w-DM-66" value="fail" style="text;html=1;strokeColor=none;fillColor=none;align=center;verticalAlign=middle;whiteSpace=wrap;rounded=0;" vertex="1" parent="1">
          <mxGeometry x="421.5" y="1104" width="60" height="30" as="geometry" />
        </mxCell>
        <mxCell id="9sUq96RR5VAVab99w-DM-67" value="fail" style="text;html=1;strokeColor=none;fillColor=none;align=center;verticalAlign=middle;whiteSpace=wrap;rounded=0;" vertex="1" parent="1">
          <mxGeometry x="336.5" y="1252" width="60" height="30" as="geometry" />
        </mxCell>
        <mxCell id="9sUq96RR5VAVab99w-DM-68" value="fail" style="text;html=1;strokeColor=none;fillColor=none;align=center;verticalAlign=middle;whiteSpace=wrap;rounded=0;" vertex="1" parent="1">
          <mxGeometry x="421.5" y="1252" width="60" height="30" as="geometry" />
        </mxCell>
        <mxCell id="9sUq96RR5VAVab99w-DM-70" value="" style="rounded=0;whiteSpace=wrap;html=1;dashed=1;fillColor=none;" vertex="1" parent="1">
          <mxGeometry x="169" y="1099" width="599" height="36" as="geometry" />
        </mxCell>
        <mxCell id="9sUq96RR5VAVab99w-DM-72" value="(k=3,m=3)" style="text;html=1;strokeColor=none;fillColor=none;align=center;verticalAlign=middle;whiteSpace=wrap;rounded=0;" vertex="1" parent="1">
          <mxGeometry x="708" y="1134" width="60" height="30" as="geometry" />
        </mxCell>
        <mxCell id="9sUq96RR5VAVab99w-DM-73" value="" style="rounded=0;whiteSpace=wrap;html=1;dashed=1;fillColor=none;" vertex="1" parent="1">
          <mxGeometry x="172" y="1252" width="599" height="68" as="geometry" />
        </mxCell>
        <mxCell id="9sUq96RR5VAVab99w-DM-74" value="(k=2,m=3)" style="text;html=1;strokeColor=none;fillColor=none;align=center;verticalAlign=middle;whiteSpace=wrap;rounded=0;" vertex="1" parent="1">
          <mxGeometry x="714" y="1315" width="60" height="30" as="geometry" />
        </mxCell>
        <mxCell id="9sUq96RR5VAVab99w-DM-75" value="&lt;b&gt;&lt;font style=&quot;font-size: 13px;&quot;&gt;S1&lt;/font&gt;&lt;/b&gt;" style="text;html=1;strokeColor=none;fillColor=none;align=center;verticalAlign=middle;whiteSpace=wrap;rounded=0;" vertex="1" parent="1">
          <mxGeometry x="166.5" y="902" width="60" height="30" as="geometry" />
        </mxCell>
        <mxCell id="9sUq96RR5VAVab99w-DM-76" value="&lt;b&gt;&lt;font style=&quot;font-size: 13px;&quot;&gt;S2&lt;/font&gt;&lt;/b&gt;" style="text;html=1;strokeColor=none;fillColor=none;align=center;verticalAlign=middle;whiteSpace=wrap;rounded=0;" vertex="1" parent="1">
          <mxGeometry x="251.5" y="902" width="60" height="30" as="geometry" />
        </mxCell>
        <mxCell id="9sUq96RR5VAVab99w-DM-77" value="&lt;b&gt;&lt;font style=&quot;font-size: 13px;&quot;&gt;S3&lt;/font&gt;&lt;/b&gt;" style="text;html=1;strokeColor=none;fillColor=none;align=center;verticalAlign=middle;whiteSpace=wrap;rounded=0;" vertex="1" parent="1">
          <mxGeometry x="336.5" y="902" width="60" height="30" as="geometry" />
        </mxCell>
        <mxCell id="9sUq96RR5VAVab99w-DM-78" value="&lt;b&gt;&lt;font style=&quot;font-size: 13px;&quot;&gt;S4&lt;/font&gt;&lt;/b&gt;" style="text;html=1;strokeColor=none;fillColor=none;align=center;verticalAlign=middle;whiteSpace=wrap;rounded=0;" vertex="1" parent="1">
          <mxGeometry x="421.5" y="902" width="60" height="30" as="geometry" />
        </mxCell>
        <mxCell id="9sUq96RR5VAVab99w-DM-79" value="&lt;b&gt;&lt;font style=&quot;font-size: 13px;&quot;&gt;S5&lt;/font&gt;&lt;/b&gt;" style="text;html=1;strokeColor=none;fillColor=none;align=center;verticalAlign=middle;whiteSpace=wrap;rounded=0;" vertex="1" parent="1">
          <mxGeometry x="553.5" y="902" width="60" height="30" as="geometry" />
        </mxCell>
        <mxCell id="9sUq96RR5VAVab99w-DM-80" value="&lt;b&gt;&lt;font style=&quot;font-size: 13px;&quot;&gt;S6&lt;/font&gt;&lt;/b&gt;" style="text;html=1;strokeColor=none;fillColor=none;align=center;verticalAlign=middle;whiteSpace=wrap;rounded=0;" vertex="1" parent="1">
          <mxGeometry x="629.5" y="902" width="60" height="30" as="geometry" />
        </mxCell>
        <mxCell id="9sUq96RR5VAVab99w-DM-81" value="&lt;b&gt;&lt;font style=&quot;font-size: 13px;&quot;&gt;S7&lt;/font&gt;&lt;/b&gt;" style="text;html=1;strokeColor=none;fillColor=none;align=center;verticalAlign=middle;whiteSpace=wrap;rounded=0;" vertex="1" parent="1">
          <mxGeometry x="708" y="902" width="60" height="30" as="geometry" />
        </mxCell>
      </root>
    </mxGraphModel>
  </diagram>
</mxfile>
